<svg version="1.1" id="Layer_1" xmlns="http://www.w3.org/2000/svg" xmlns:xlink="http://www.w3.org/1999/xlink" x="0px" y="0px"
	 width="100%" viewBox="0 0 100 100" enable-background="new 0 0 100 100" xml:space="preserve">
<path fill="#F2A900" opacity="1.000000" stroke="none" 
	d="
M42.251236,100.756744 
	C34.645748,101.000000 27.291496,101.000000 19.468622,101.000000 
	C13.176134,97.689346 10.228888,91.889091 7.595951,86.307335 
	C5.739789,82.372314 5.976359,77.552444 8.631911,73.401115 
	C11.945369,68.221306 15.489717,63.193790 18.777229,58.000317 
	C22.218939,52.563251 19.654221,47.804893 13.188862,47.307438 
	C9.164056,46.997761 4.724442,48.316391 1.263630,44.257710 
	C1.000000,33.312439 1.000000,22.624876 1.000000,11.468657 
	C6.423519,2.301554 14.984449,3.552236 23.223539,4.171218 
	C25.999672,4.379782 28.712593,5.424648 31.335182,6.484396 
	C33.310032,7.282401 35.353462,7.344225 37.076714,6.161879 
	C41.873783,2.870546 47.389759,3.025204 52.458374,3.976140 
	C60.511890,5.487080 67.793556,2.705659 75.688446,1.246568 
	C83.580231,1.000000 91.161270,1.058910 98.740112,0.956328 
	C100.514320,0.932313 101.150345,1.237972 101.056473,3.192676 
	C100.866959,7.138477 101.000000,11.099770 101.000000,15.527336 
	C99.569862,18.453114 97.296318,19.626169 94.667641,20.443983 
	C85.467140,23.306366 76.196571,25.945368 67.057121,29.000460 
	C62.441875,30.543222 62.180111,31.339487 65.003319,35.139259 
	C75.401779,49.134647 85.484123,63.362343 95.979027,77.285835 
	C97.894264,79.826752 99.248032,82.625610 100.757645,85.748810 
	C101.000000,89.692909 101.000000,93.385818 101.000000,97.539368 
	C100.149704,98.863136 99.442245,99.869408 98.213623,100.783752 
	C90.645744,101.000000 83.291496,101.000000 75.468620,101.000000 
	C68.531784,96.703438 65.517921,89.540977 60.808319,83.787895 
	C58.180756,80.578148 55.784523,77.153397 53.389729,73.756271 
	C51.578835,71.187447 50.278873,70.835396 48.079708,73.433563 
	C44.870674,77.224823 42.867672,80.443764 46.074608,85.718460 
	C49.373402,91.144211 47.263363,97.381172 42.251236,100.756744 
z"/>
<path fill="#000000" opacity="1.000000" stroke="none" 
	d="
M101.000000,85.531342 
	C97.258858,85.889069 96.743500,82.234245 95.159805,80.138756 
	C83.270309,64.406937 71.765228,48.385204 59.976917,32.575680 
	C58.039467,29.977335 58.705116,29.083870 61.338120,28.261869 
	C73.239578,24.546331 85.109367,20.727419 97.044144,17.123165 
	C98.396629,16.714720 99.379761,16.017904 100.731010,15.655658 
	C101.000000,39.020893 101.000000,62.041790 101.000000,85.531342 
z"/>
<path fill="#000000" opacity="1.000000" stroke="none" 
	d="
M1.000000,44.468658 
	C6.386871,44.506321 11.676965,45.474026 17.217045,44.642559 
	C20.583677,44.137287 24.463367,53.963715 22.403513,57.077431 
	C18.467066,63.027832 14.447768,68.924149 10.567506,74.910744 
	C7.932175,78.976624 8.034933,83.171844 10.678596,87.205917 
	C13.615454,91.687378 16.672506,96.090065 19.338615,100.763527 
	C14.360727,101.000000 9.706087,100.770149 5.087456,101.078918 
	C1.883677,101.293098 0.831070,100.758011 0.884693,97.127441 
	C1.141595,79.733955 1.000000,62.334591 1.000000,44.468658 
z"/>
<path fill="#000000" opacity="1.000000" stroke="none" 
	d="
M42.468658,101.000000 
	C41.542297,98.321571 44.866364,97.481354 44.906563,95.083427 
	C44.971859,91.188087 45.788349,87.193687 42.522171,83.899963 
	C40.219604,81.577980 40.099873,79.309631 42.714821,76.599724 
	C45.700233,73.505882 47.983902,69.734879 50.744854,66.026695 
	C59.110847,77.601448 67.394737,89.062599 75.339310,100.761871 
	C64.312439,101.000000 53.624878,101.000000 42.468658,101.000000 
z"/>
<path fill="#000000" opacity="1.000000" stroke="none" 
	d="
M75.531342,1.000000 
	C76.807320,2.493988 75.800560,2.677329 74.682854,3.011440 
	C69.723068,4.494047 64.774124,6.016660 59.853752,7.624270 
	C58.840195,7.955426 58.054363,7.946321 57.056194,7.556457 
	C49.784164,4.716146 42.637318,4.842003 36.179939,9.514668 
	C34.238117,10.919802 33.560188,10.407055 31.713879,9.458631 
	C22.781912,4.870404 9.944474,3.818162 1.245716,11.339855 
	C1.000000,7.683918 -0.286165,3.139126 1.370146,1.405364 
	C2.952850,-0.251350 7.597659,1.003007 10.896494,1.002312 
	C32.285225,0.997803 53.673954,1.000000 75.531342,1.000000 
z"/>
<path fill="#000000" opacity="1.000000" stroke="none" 
	d="
M98.500000,101.000000 
	C97.349342,98.804436 99.509239,98.465073 100.718056,97.655685 
	C100.736679,99.268898 102.085014,101.612228 98.500000,101.000000 
z"/>
</svg>